ffmpeg started on 2016-12-12 at 06:13:18
Report written to "Output/theora/results/ffmpeg/sintel6000k.log"
Command line:
Tools/ffmpeg/ffmpeg -benchmark -y -i Input/y4m/sintel.y4m -c:v libtheora -b:v 6000k -an Output/theora/encoded/sintel6000k.mkv
ffmpeg version N-82227-gdb23fde Copyright (c) 2000-2016 the FFmpeg developers
  built with gcc 5.4.0 (Ubuntu 5.4.0-6ubuntu1~16.04.2) 20160609
  configuration: --prefix=/home/jaroslav/ffmpeg_build --pkg-config-flags=--static --extra-cflags=-I/home/jaroslav/ffmpeg_build/include --extra-ldflags=-L/home/jaroslav/ffmpeg_build/lib --bindir=/home/jaroslav/bin --enable-gpl --enable-libass --enable-libfdk-aac --enable-libfreetype --enable-libmp3lame --enable-libopus --enable-libtheora --enable-libvorbis --enable-libvpx --enable-libx264 --enable-libx265 --enable-nvenc --enable-libmfx --enable-libxvid --enable-libgsm --enable-libopencore-amrnb --enable-version3 --enable-nonfree
  libavutil      55. 35.100 / 55. 35.100
  libavcodec     57. 66.101 / 57. 66.101
  libavformat    57. 57.100 / 57. 57.100
  libavdevice    57.  2.100 / 57.  2.100
  libavfilter     6. 66.100 /  6. 66.100
  libswscale      4.  3.100 /  4.  3.100
  libswresample   2.  4.100 /  2.  4.100
  libpostproc    54.  2.100 / 54.  2.100
Input #0, yuv4mpegpipe, from 'Input/y4m/sintel.y4m':
  Duration: 00:00:20.83, start: 0.000000, bitrate: 2057307 kb/s
    Stream #0:0: Video: rawvideo (I420 / 0x30323449), yuv420p(progressive), 4096x1744, SAR 1:1 DAR 256:109, 24 fps, 24 tbr, 24 tbn, 24 tbc
Output #0, matroska, to 'Output/theora/encoded/sintel6000k.mkv':
  Metadata:
    encoder         : Lavf57.57.100
    Stream #0:0: Video: theora (libtheora) (theo / 0x6F656874), yuv420p, 4096x1744 [SAR 1:1 DAR 256:109], q=2-31, 6000 kb/s, 24 fps, 1k tbn, 24 tbc
    Metadata:
      encoder         : Lavc57.66.101 libtheora
Stream mapping:
  Stream #0:0 -> #0:0 (rawvideo (native) -> theora (libtheora))
Press [q] to stop, [?] for help
frame=    3 fps=0.0 q=-0.0 size=       4kB time=00:00:00.08 bitrate= 380.5kbits/s speed=0.125x    frame=    5 fps=3.9 q=-0.0 size=       4kB time=00:00:00.16 bitrate= 190.2kbits/s speed=0.132x    frame=    7 fps=3.7 q=-0.0 size=       4kB time=00:00:00.25 bitrate= 127.3kbits/s speed=0.134x    frame=    9 fps=3.6 q=-0.0 size=       4kB time=00:00:00.33 bitrate=  95.7kbits/s speed=0.135x    frame=   11 fps=3.6 q=-0.0 size=       4kB time=00:00:00.41 bitrate=  76.5kbits/s speed=0.136x    frame=   13 fps=3.5 q=-0.0 size=     421kB time=00:00:00.50 bitrate=6878.8kbits/s speed=0.136x    frame=   16 fps=3.6 q=-0.0 size=     421kB time=00:00:00.62 bitrate=5505.2kbits/s speed=0.141x    frame=   18 fps=2.1 q=-0.0 size=     421kB time=00:00:00.70 bitrate=4860.8kbits/s speed=0.0833x    frame=   19 fps=1.6 q=-0.0 size=     421kB time=00:00:00.75 bitrate=4588.9kbits/s speed=0.0617x    frame=   21 fps=1.6 q=-0.0 size=     421kB time=00:00:00.83 bitrate=4132.2kbits/s speed=0.0651x    frame=   23 fps=1.7 q=-0.0 size=     421kB time=00:00:00.91 bitrate=3754.1kbits/s speed=0.0684x    frame=   25 fps=1.8 q=-0.0 size=     894kB time=00:00:01.00 bitrate=7319.4kbits/s speed=0.0712x    frame=   28 fps=1.9 q=-0.0 size=     894kB time=00:00:01.12 bitrate=6506.9kbits/s speed=0.0761x    frame=   30 fps=1.9 q=-0.0 size=     894kB time=00:00:01.20 bitrate=6060.2kbits/s speed=0.0785x    frame=   32 fps=2.0 q=-0.0 size=     894kB time=00:00:01.29 bitrate=5666.5kbits/s speed=0.0807x    frame=   34 fps=2.0 q=-0.0 size=     894kB time=00:00:01.37 bitrate=5324.7kbits/s speed=0.0828x    frame=   36 fps=2.1 q=-0.0 size=     894kB time=00:00:01.45 bitrate=5021.8kbits/s speed=0.0846x    frame=   39 fps=2.2 q=-0.0 size=    1284kB time=00:00:01.58 bitrate=6638.6kbits/s speed=0.088x    frame=   41 fps=2.2 q=-0.0 size=    1284kB time=00:00:01.66 bitrate=6304.3kbits/s speed=0.0896x    frame=   43 fps=2.2 q=-0.0 size=    1284kB time=00:00:01.75 bitrate=6005.4kbits/s speed=0.091x    frame=   45 fps=2.3 q=-0.0 size=    1284kB time=00:00:01.83 bitrate=5733.6kbits/s speed=0.0924x    frame=   47 fps=2.3 q=-0.0 size=    1284kB time=00:00:01.91 bitrate=5482.5kbits/s speed=0.0938x    frame=   49 fps=2.3 q=-0.0 size=    1644kB time=00:00:02.00 bitrate=6728.5kbits/s speed=0.0951x    frame=   52 fps=2.4 q=-0.0 size=    1644kB time=00:00:02.12 bitrate=6332.9kbits/s speed=0.0976x    frame=   54 fps=2.4 q=-0.0 size=    1644kB time=00:00:02.20 bitrate=6094.9kbits/s speed=0.0986x    frame=   56 fps=2.4 q=-0.0 size=    1644kB time=00:00:02.29 bitrate=5871.6kbits/s speed=0.0996x    frame=   58 fps=2.5 q=-0.0 size=    1964kB time=00:00:02.37 bitrate=6772.2kbits/s speed=0.101x    frame=   60 fps=2.5 q=-0.0 size=    1964kB time=00:00:02.45 bitrate=6543.6kbits/s speed=0.101x    frame=   62 fps=2.5 q=-0.0 size=    1964kB time=00:00:02.54 bitrate=6327.4kbits/s speed=0.102x    frame=   64 fps=2.5 q=-0.0 size=    1964kB time=00:00:02.62 bitrate=6127.4kbits/s speed=0.103x    frame=   66 fps=2.5 q=-0.0 size=    2272kB time=00:00:02.70 bitrate=6869.2kbits/s speed=0.103x    frame=   68 fps=2.5 q=-0.0 size=    2329kB time=00:00:02.79 bitrate=6830.8kbits/s speed=0.104x    frame=   70 fps=2.5 q=-0.0 size=    2384kB time=00:00:02.87 bitrate=6790.5kbits/s speed=0.104x    frame=   72 fps=2.5 q=-0.0 size=    2413kB time=00:00:02.95 bitrate=6681.6kbits/s speed=0.104x    frame=   74 fps=2.6 q=-0.0 size=    2471kB time=00:00:03.04 bitrate=6652.5kbits/s speed=0.105x    frame=   76 fps=2.6 q=-0.0 size=    2552kB time=00:00:03.12 bitrate=6686.6kbits/s speed=0.105x    frame=   78 fps=2.6 q=-0.0 size=    2601kB time=00:00:03.20 bitrate=6639.3kbits/s speed=0.106x    frame=   80 fps=2.6 q=-0.0 size=    2655kB time=00:00:03.29 bitrate=6605.7kbits/s speed=0.106x    frame=   82 fps=2.6 q=-0.0 size=    2710kB time=00:00:03.37 bitrate=6574.8kbits/s speed=0.106x    frame=   84 fps=2.6 q=-0.0 size=    2772kB time=00:00:03.45 bitrate=6564.0kbits/s speed=0.106x    frame=   86 fps=2.6 q=-0.0 size=    2833kB time=00:00:03.54 bitrate=6549.7kbits/s speed=0.107x    frame=   88 fps=2.6 q=-0.0 size=    2890kB time=00:00:03.62 bitrate=6529.5kbits/s speed=0.107x    frame=   90 fps=2.6 q=-0.0 size=    2953kB time=00:00:03.70 bitrate=6522.5kbits/s speed=0.107x    frame=   92 fps=2.6 q=-0.0 size=    2987kB time=00:00:03.79 bitrate=6450.5kbits/s speed=0.107x    frame=   94 fps=2.6 q=-0.0 size=    2987kB time=00:00:03.87 bitrate=6312.4kbits/s speed=0.107x    frame=   96 fps=2.6 q=-0.0 size=    2987kB time=00:00:03.95 bitrate=6180.0kbits/s speed=0.108x    frame=   98 fps=2.6 q=-0.0 size=    2987kB time=00:00:04.04 bitrate=6051.6kbits/s speed=0.108x    frame=  100 fps=2.6 q=-0.0 size=    2987kB time=00:00:04.12 bitrate=5929.9kbits/s speed=0.109x    frame=  102 fps=2.6 q=-0.0 size=    2987kB time=00:00:04.20 bitrate=5813.0kbits/s speed=0.109x    frame=  105 fps=2.7 q=-0.0 size=    3386kB time=00:00:04.33 bitrate=6400.4kbits/s speed=0.11x    frame=  107 fps=2.7 q=-0.0 size=    3386kB time=00:00:04.41 bitrate=6278.7kbits/s speed=0.111x    frame=  109 fps=2.7 q=-0.0 size=    3386kB time=00:00:04.50 bitrate=6162.9kbits/s speed=0.111x    frame=  111 fps=2.7 q=-0.0 size=    3386kB time=00:00:04.58 bitrate=6051.4kbits/s speed=0.111x    frame=  113 fps=2.7 q=-0.0 size=    3386kB time=00:00:04.66 bitrate=5942.5kbits/s speed=0.112x    frame=  115 fps=2.7 q=-0.0 size=    3756kB time=00:00:04.75 bitrate=6476.8kbits/s speed=0.112x    frame=  117 fps=2.7 q=-0.0 size=    3788kB time=00:00:04.83 bitrate=6418.8kbits/s speed=0.113x    frame=  119 fps=2.7 q=-0.0 size=    3788kB time=00:00:04.91 bitrate=6309.2kbits/s speed=0.113x    frame=  121 fps=2.7 q=-0.0 size=    3788kB time=00:00:05.00 bitrate=6204.5kbits/s speed=0.113x    frame=  123 fps=2.8 q=-0.0 size=    3788kB time=00:00:05.08 bitrate=6103.2kbits/s speed=0.114x    frame=  125 fps=2.8 q=-0.0 size=    4112kB time=00:00:05.16 bitrate=6518.1kbits/s speed=0.114x    frame=  127 fps=2.8 q=-0.0 size=    4202kB time=00:00:05.25 bitrate=6556.2kbits/s speed=0.114x    frame=  129 fps=2.8 q=-0.0 size=    4297kB time=00:00:05.33 bitrate=6600.1kbits/s speed=0.114x    frame=  131 fps=2.8 q=-0.0 size=    4399kB time=00:00:05.41 bitrate=6651.1kbits/s speed=0.114x    frame=  133 fps=2.7 q=-0.0 size=    4512kB time=00:00:05.50 bitrate=6719.4kbits/s speed=0.114x    frame=  135 fps=2.7 q=-0.0 size=    4629kB time=00:00:05.58 bitrate=6791.5kbits/s speed=0.114x    frame=  137 fps=2.7 q=-0.0 size=    4746kB time=00:00:05.66 bitrate=6858.8kbits/s speed=0.113x    frame=  139 fps=2.7 q=-0.0 size=    4803kB time=00:00:05.75 bitrate=6841.8kbits/s speed=0.113x    frame=  141 fps=2.7 q=-0.0 size=    4911kB time=00:00:05.83 bitrate=6896.1kbits/s speed=0.113x    frame=  143 fps=2.7 q=-0.0 size=    4911kB time=00:00:05.91 bitrate=6798.2kbits/s speed=0.114x    frame=  145 fps=2.8 q=-0.0 size=    4911kB time=00:00:06.00 bitrate=6704.2kbits/s speed=0.114x    frame=  147 fps=2.8 q=-0.0 size=    4911kB time=00:00:06.08 bitrate=6612.7kbits/s speed=0.114x    frame=  149 fps=2.8 q=-0.0 size=    4911kB time=00:00:06.16 bitrate=6522.7kbits/s speed=0.114x    frame=  151 fps=2.8 q=-0.0 size=    4911kB time=00:00:06.25 bitrate=6436.1kbits/s speed=0.115x    frame=  154 fps=2.8 q=-0.0 size=    5420kB time=00:00:06.37 bitrate=6963.2kbits/s speed=0.115x    frame=  156 fps=2.8 q=-0.0 size=    5420kB time=00:00:06.45 bitrate=6873.7kbits/s speed=0.116x    frame=  158 fps=2.8 q=-0.0 size=    5598kB time=00:00:06.54 bitrate=7009.3kbits/s speed=0.116x    frame=  160 fps=2.8 q=-0.0 size=    5598kB time=00:00:06.62 bitrate=6921.5kbits/s speed=0.116x    frame=  162 fps=2.8 q=-0.0 size=    5598kB time=00:00:06.70 bitrate=6835.9kbits/s speed=0.116x    frame=  164 fps=2.8 q=-0.0 size=    5783kB time=00:00:06.79 bitrate=6973.8kbits/s speed=0.116x    frame=  166 fps=2.8 q=-0.0 size=    5853kB time=00:00:06.87 bitrate=6973.0kbits/s speed=0.116x    frame=  168 fps=2.8 q=-0.0 size=    5961kB time=00:00:06.95 bitrate=7017.7kbits/s speed=0.116x    frame=  170 fps=2.8 q=-0.0 size=    6035kB time=00:00:07.04 bitrate=7020.0kbits/s speed=0.116x    frame=  172 fps=2.8 q=-0.0 size=    6109kB time=00:00:07.12 bitrate=7023.4kbits/s speed=0.116x    frame=  174 fps=2.8 q=-0.0 size=    6182kB time=00:00:07.20 bitrate=7024.7kbits/s speed=0.116x    frame=  176 fps=2.8 q=-0.0 size=    6255kB time=00:00:07.29 bitrate=7025.8kbits/s speed=0.116x    frame=  178 fps=2.8 q=-0.0 size=    6290kB time=00:00:07.37 bitrate=6986.1kbits/s speed=0.116x    frame=  180 fps=2.8 q=-0.0 size=    6290kB time=00:00:07.45 bitrate=6908.4kbits/s speed=0.116x    frame=  182 fps=2.8 q=-0.0 size=    6456kB time=00:00:07.54 bitrate=7011.0kbits/s speed=0.116x    frame=  184 fps=2.8 q=-0.0 size=    6528kB time=00:00:07.62 bitrate=7012.5kbits/s speed=0.116x    frame=  186 fps=2.8 q=-0.0 size=    6528kB time=00:00:07.70 bitrate=6937.0kbits/s speed=0.116x    frame=  188 fps=2.8 q=-0.0 size=    6528kB time=00:00:07.79 bitrate=6862.2kbits/s speed=0.117x    frame=  190 fps=2.8 q=-0.0 size=    6528kB time=00:00:07.87 bitrate=6789.9kbits/s speed=0.117x    frame=  192 fps=2.8 q=-0.0 size=    6528kB time=00:00:07.95 bitrate=6719.1kbits/s speed=0.117x    frame=  194 fps=2.8 q=-0.0 size=    6808kB time=00:00:08.04 bitrate=6934.2kbits/s speed=0.117x    frame=  196 fps=2.8 q=-0.0 size=    6875kB time=00:00:08.12 bitrate=6930.4kbits/s speed=0.117x    frame=  198 fps=2.8 q=-0.0 size=    6940kB time=00:00:08.20 bitrate=6926.0kbits/s speed=0.117x    frame=  200 fps=2.8 q=-0.0 size=    7009kB time=00:00:08.29 bitrate=6923.4kbits/s speed=0.117x    frame=  202 fps=2.8 q=-0.0 size=    7086kB time=00:00:08.37 bitrate=6929.9kbits/s speed=0.116x    frame=  204 fps=2.8 q=-0.0 size=    7167kB time=00:00:08.45 bitrate=6940.7kbits/s speed=0.116x    frame=  206 fps=2.8 q=-0.0 size=    7248kB time=00:00:08.54 bitrate=6949.8kbits/s speed=0.116x    frame=  208 fps=2.8 q=-0.0 size=    7330kB time=00:00:08.62 bitrate=6961.3kbits/s speed=0.116x    frame=  210 fps=2.8 q=-0.0 size=    7373kB time=00:00:08.70 bitrate=6935.2kbits/s speed=0.116x    frame=  212 fps=2.8 q=-0.0 size=    7373kB time=00:00:08.79 bitrate=6868.9kbits/s speed=0.116x    frame=  213 fps=2.8 q=-0.0 size=    7373kB time=00:00:08.83 bitrate=6837.1kbits/s speed=0.116x    frame=  215 fps=2.8 q=-0.0 size=    7373kB time=00:00:08.91 bitrate=6772.7kbits/s speed=0.116x    frame=  217 fps=2.8 q=-0.0 size=    7373kB time=00:00:09.00 bitrate=6710.2kbits/s speed=0.116x    frame=  219 fps=2.8 q=-0.0 size=    7373kB time=00:00:09.08 bitrate=6648.9kbits/s speed=0.116x    frame=  221 fps=2.8 q=-0.0 size=    7859kB time=00:00:09.16 bitrate=7022.7kbits/s speed=0.117x    frame=  224 fps=2.8 q=-0.0 size=    7859kB time=00:00:09.29 bitrate=6928.3kbits/s speed=0.117x    frame=  226 fps=2.8 q=-0.0 size=    7859kB time=00:00:09.37 bitrate=6866.9kbits/s speed=0.117x    frame=  228 fps=2.8 q=-0.0 size=    7859kB time=00:00:09.45 bitrate=6806.7kbits/s speed=0.117x    frame=  230 fps=2.8 q=-0.0 size=    7859kB time=00:00:09.54 bitrate=6746.8kbits/s speed=0.118x    frame=  232 fps=2.8 q=-0.0 size=    7859kB time=00:00:09.62 bitrate=6688.6kbits/s speed=0.118x    frame=  235 fps=2.9 q=-0.0 size=    8188kB time=00:00:09.75 bitrate=6879.1kbits/s speed=0.118x    frame=  237 fps=2.9 q=-0.0 size=    8188kB time=00:00:09.83 bitrate=6821.0kbits/s speed=0.118x    frame=  239 fps=2.9 q=-0.0 size=    8188kB time=00:00:09.91 bitrate=6763.2kbits/s speed=0.119x    frame=  241 fps=2.9 q=-0.0 size=    8188kB time=00:00:10.00 bitrate=6707.1kbits/s speed=0.119x    frame=  243 fps=2.9 q=-0.0 size=    8594kB time=00:00:10.08 bitrate=6981.2kbits/s speed=0.119x    frame=  245 fps=2.9 q=-0.0 size=    8594kB time=00:00:10.16 bitrate=6923.5kbits/s speed=0.119x    frame=  247 fps=2.9 q=-0.0 size=    8594kB time=00:00:10.25 bitrate=6867.5kbits/s speed=0.119x    frame=  249 fps=2.9 q=-0.0 size=    8594kB time=00:00:10.33 bitrate=6812.3kbits/s speed=0.119x    frame=  251 fps=2.9 q=-0.0 size=    8594kB time=00:00:10.41 bitrate=6757.4kbits/s speed=0.119x    frame=  253 fps=2.9 q=-0.0 size=    8594kB time=00:00:10.50 bitrate=6704.0kbits/s speed=0.119x    frame=  256 fps=2.9 q=-0.0 size=    9187kB time=00:00:10.62 bitrate=7082.4kbits/s speed=0.119x    frame=  258 fps=2.9 q=-0.0 size=    9187kB time=00:00:10.70 bitrate=7027.5kbits/s speed=0.12x    frame=  260 fps=2.9 q=-0.0 size=    9187kB time=00:00:10.79 bitrate=6972.8kbits/s speed=0.12x    frame=  262 fps=2.9 q=-0.0 size=    9187kB time=00:00:10.87 bitrate=6919.6kbits/s speed=0.12x    frame=  264 fps=2.9 q=-0.0 size=    9187kB time=00:00:10.95 bitrate=6867.2kbits/s speed=0.12x    frame=  266 fps=2.9 q=-0.0 size=    9518kB time=00:00:11.04 bitrate=7060.6kbits/s speed=0.12x    frame=  269 fps=2.9 q=-0.0 size=    9518kB time=00:00:11.16 bitrate=6981.6kbits/s speed=0.12x    frame=  271 fps=2.9 q=-0.0 size=    9518kB time=00:00:11.25 bitrate=6930.1kbits/s speed=0.121x    frame=  273 fps=2.9 q=-0.0 size=    9518kB time=00:00:11.33 bitrate=6879.3kbits/s speed=0.121x    frame=  275 fps=2.9 q=-0.0 size=    9518kB time=00:00:11.41 bitrate=6828.7kbits/s speed=0.121x    frame=  277 fps=2.9 q=-0.0 size=    9518kB time=00:00:11.50 bitrate=6779.4kbits/s speed=0.121x    frame=  280 fps=2.9 q=-0.0 size=    9799kB time=00:00:11.62 bitrate=6904.7kbits/s speed=0.121x    frame=  282 fps=2.9 q=-0.0 size=    9799kB time=00:00:11.70 bitrate=6855.7kbits/s speed=0.121x    frame=  284 fps=2.9 q=-0.0 size=    9799kB time=00:00:11.79 bitrate=6806.9kbits/s speed=0.122x    frame=  286 fps=2.9 q=-0.0 size=    9799kB time=00:00:11.87 bitrate=6759.3kbits/s speed=0.122x    frame=  288 fps=2.9 q=-0.0 size=    9799kB time=00:00:11.95 bitrate=6712.4kbits/s speed=0.122x    frame=  290 fps=2.9 q=-0.0 size=   10112kB time=00:00:12.04 bitrate=6878.7kbits/s speed=0.122x    frame=  293 fps=2.9 q=-0.0 size=   10112kB time=00:00:12.16 bitrate=6808.0kbits/s speed=0.122x    frame=  295 fps=2.9 q=-0.0 size=   10112kB time=00:00:12.25 bitrate=6761.9kbits/s speed=0.122x    frame=  297 fps=3.0 q=-0.0 size=   10112kB time=00:00:12.33 bitrate=6716.4kbits/s speed=0.123x    frame=  299 fps=3.0 q=-0.0 size=   10112kB time=00:00:12.41 bitrate=6671.0kbits/s speed=0.123x    frame=  301 fps=3.0 q=-0.0 size=   10112kB time=00:00:12.50 bitrate=6626.7kbits/s speed=0.123x    frame=  302 fps=3.0 q=-0.0 size=   10348kB time=00:00:12.54 bitrate=6758.6kbits/s speed=0.123x    frame=  305 fps=3.0 q=-0.0 size=   10348kB time=00:00:12.66 bitrate=6691.9kbits/s speed=0.123x    frame=  307 fps=3.0 q=-0.0 size=   10348kB time=00:00:12.75 bitrate=6648.4kbits/s speed=0.123x    frame=  309 fps=3.0 q=-0.0 size=   10348kB time=00:00:12.83 bitrate=6605.4kbits/s speed=0.123x    frame=  311 fps=3.0 q=-0.0 size=   10348kB time=00:00:12.91 bitrate=6562.4kbits/s speed=0.123x    frame=  313 fps=3.0 q=-0.0 size=   10348kB time=00:00:13.00 bitrate=6520.5kbits/s speed=0.123x    frame=  316 fps=3.0 q=-0.0 size=   10541kB time=00:00:13.12 bitrate=6579.0kbits/s speed=0.124x    frame=  318 fps=3.0 q=-0.0 size=   10541kB time=00:00:13.20 bitrate=6537.6kbits/s speed=0.124x    frame=  320 fps=3.0 q=-0.0 size=   10541kB time=00:00:13.29 bitrate=6496.3kbits/s speed=0.124x    frame=  322 fps=3.0 q=-0.0 size=   10541kB time=00:00:13.37 bitrate=6456.0kbits/s speed=0.124x    frame=  324 fps=3.0 q=-0.0 size=   10541kB time=00:00:13.45 bitrate=6416.2kbits/s speed=0.124x    frame=  326 fps=3.0 q=-0.0 size=   10747kB time=00:00:13.54 bitrate=6500.5kbits/s speed=0.124x    frame=  329 fps=3.0 q=-0.0 size=   10747kB time=00:00:13.66 bitrate=6441.0kbits/s speed=0.125x    frame=  331 fps=3.0 q=-0.0 size=   10747kB time=00:00:13.75 bitrate=6402.2kbits/s speed=0.125x    frame=  333 fps=3.0 q=-0.0 size=   10747kB time=00:00:13.83 bitrate=6363.7kbits/s speed=0.125x    frame=  335 fps=3.0 q=-0.0 size=   10747kB time=00:00:13.91 bitrate=6325.3kbits/s speed=0.125x    frame=  337 fps=3.0 q=-0.0 size=   10747kB time=00:00:14.00 bitrate=6287.8kbits/s speed=0.125x    frame=  340 fps=3.0 q=-0.0 size=   10956kB time=00:00:14.12 bitrate=6353.9kbits/s speed=0.125x    frame=  342 fps=3.0 q=-0.0 size=   10956kB time=00:00:14.20 bitrate=6316.8kbits/s speed=0.126x    frame=  344 fps=3.0 q=-0.0 size=   10956kB time=00:00:14.29 bitrate=6279.7kbits/s speed=0.126x    frame=  346 fps=3.0 q=-0.0 size=   10956kB time=00:00:14.37 bitrate=6243.4kbits/s speed=0.126x    frame=  348 fps=3.0 q=-0.0 size=   10956kB time=00:00:14.45 bitrate=6207.6kbits/s speed=0.126x    frame=  350 fps=3.0 q=-0.0 size=   11198kB time=00:00:14.54 bitrate=6307.5kbits/s speed=0.126x    frame=  353 fps=3.0 q=-0.0 size=   11198kB time=00:00:14.66 bitrate=6253.8kbits/s speed=0.126x    frame=  355 fps=3.0 q=-0.0 size=   11198kB time=00:00:14.75 bitrate=6218.6kbits/s speed=0.126x    frame=  357 fps=3.0 q=-0.0 size=   11198kB time=00:00:14.83 bitrate=6183.8kbits/s speed=0.126x    frame=  359 fps=3.0 q=-0.0 size=   11198kB time=00:00:14.91 bitrate=6149.0kbits/s speed=0.127x    frame=  361 fps=3.0 q=-0.0 size=   11198kB time=00:00:15.00 bitrate=6114.9kbits/s speed=0.127x    frame=  364 fps=3.1 q=-0.0 size=   11599kB time=00:00:15.12 bitrate=6281.6kbits/s speed=0.127x    frame=  366 fps=3.1 q=-0.0 size=   11599kB time=00:00:15.20 bitrate=6247.3kbits/s speed=0.127x    frame=  368 fps=3.1 q=-0.0 size=   11599kB time=00:00:15.29 bitrate=6213.0kbits/s speed=0.127x    frame=  370 fps=3.1 q=-0.0 size=   11599kB time=00:00:15.37 bitrate=6179.5kbits/s speed=0.127x    frame=  372 fps=3.1 q=-0.0 size=   11599kB time=00:00:15.45 bitrate=6146.3kbits/s speed=0.127x    frame=  374 fps=3.1 q=-0.0 size=   11599kB time=00:00:15.54 bitrate=6113.1kbits/s speed=0.127x    frame=  377 fps=3.1 q=-0.0 size=   11886kB time=00:00:15.66 bitrate=6214.4kbits/s speed=0.127x    frame=  379 fps=3.1 q=-0.0 size=   11886kB time=00:00:15.75 bitrate=6181.6kbits/s speed=0.127x    frame=  381 fps=3.1 q=-0.0 size=   11886kB time=00:00:15.83 bitrate=6149.2kbits/s speed=0.128x    frame=  383 fps=3.1 q=-0.0 size=   11886kB time=00:00:15.91 bitrate=6116.8kbits/s speed=0.128x    frame=  385 fps=3.1 q=-0.0 size=   11886kB time=00:00:16.00 bitrate=6085.1kbits/s speed=0.128x    frame=  387 fps=3.1 q=-0.0 size=   12163kB time=00:00:16.08 bitrate=6194.8kbits/s speed=0.128x    frame=  390 fps=3.1 q=-0.0 size=   12163kB time=00:00:16.20 bitrate=6147.0kbits/s speed=0.128x    frame=  392 fps=3.1 q=-0.0 size=   12163kB time=00:00:16.29 bitrate=6115.4kbits/s speed=0.128x    frame=  394 fps=3.1 q=-0.0 size=   12163kB time=00:00:16.37 bitrate=6084.4kbits/s speed=0.128x    frame=  396 fps=3.1 q=-0.0 size=   12163kB time=00:00:16.45 bitrate=6053.7kbits/s speed=0.128x    frame=  398 fps=3.1 q=-0.0 size=   12163kB time=00:00:16.54 bitrate=6022.9kbits/s speed=0.128x    frame=  401 fps=3.1 q=-0.0 size=   12621kB time=00:00:16.66 bitrate=6202.9kbits/s speed=0.128x    frame=  403 fps=3.1 q=-0.0 size=   12621kB time=00:00:16.75 bitrate=6172.2kbits/s speed=0.129x    frame=  405 fps=3.1 q=-0.0 size=   12621kB time=00:00:16.83 bitrate=6141.8kbits/s speed=0.129x    frame=  407 fps=3.1 q=-0.0 size=   12621kB time=00:00:16.91 bitrate=6111.3kbits/s speed=0.129x    frame=  409 fps=3.1 q=-0.0 size=   12621kB time=00:00:17.00 bitrate=6081.4kbits/s speed=0.129x    frame=  411 fps=3.1 q=-0.0 size=   12928kB time=00:00:17.08 bitrate=6199.2kbits/s speed=0.129x    frame=  414 fps=3.1 q=-0.0 size=   12928kB time=00:00:17.20 bitrate=6154.2kbits/s speed=0.129x    frame=  416 fps=3.1 q=-0.0 size=   12928kB time=00:00:17.29 bitrate=6124.3kbits/s speed=0.129x    frame=  418 fps=3.1 q=-0.0 size=   12928kB time=00:00:17.37 bitrate=6095.0kbits/s speed=0.129x    frame=  420 fps=3.1 q=-0.0 size=   13087kB time=00:00:17.45 bitrate=6140.5kbits/s speed=0.129x    frame=  422 fps=3.1 q=-0.0 size=   13087kB time=00:00:17.54 bitrate=6111.1kbits/s speed=0.129x    frame=  424 fps=3.1 q=-0.0 size=   13087kB time=00:00:17.62 bitrate=6082.3kbits/s speed=0.129x    frame=  426 fps=3.1 q=-0.0 size=   13087kB time=00:00:17.70 bitrate=6053.8kbits/s speed=0.129x    frame=  428 fps=3.1 q=-0.0 size=   13087kB time=00:00:17.79 bitrate=6025.3kbits/s speed=0.129x    frame=  430 fps=3.1 q=-0.0 size=   13087kB time=00:00:17.87 bitrate=5997.3kbits/s speed=0.129x    frame=  433 fps=3.1 q=-0.0 size=   13514kB time=00:00:18.00 bitrate=6149.9kbits/s speed=0.129x    frame=  435 fps=3.1 q=-0.0 size=   13514kB time=00:00:18.08 bitrate=6121.7kbits/s speed=0.13x    frame=  437 fps=3.1 q=-0.0 size=   13514kB time=00:00:18.16 bitrate=6093.4kbits/s speed=0.13x    frame=  439 fps=3.1 q=-0.0 size=   13514kB time=00:00:18.25 bitrate=6065.7kbits/s speed=0.13x    frame=  441 fps=3.1 q=-0.0 size=   13514kB time=00:00:18.33 bitrate=6038.2kbits/s speed=0.13x    frame=  443 fps=3.1 q=-0.0 size=   13757kB time=00:00:18.41 bitrate=6118.7kbits/s speed=0.13x    frame=  446 fps=3.1 q=-0.0 size=   13757kB time=00:00:18.54 bitrate=6077.4kbits/s speed=0.13x    frame=  448 fps=3.1 q=-0.0 size=   13757kB time=00:00:18.62 bitrate=6050.3kbits/s speed=0.13x    frame=  450 fps=3.1 q=-0.0 size=   13757kB time=00:00:18.70 bitrate=6023.5kbits/s speed=0.13x    frame=  452 fps=3.1 q=-0.0 size=   13757kB time=00:00:18.79 bitrate=5996.6kbits/s speed=0.13x    frame=  454 fps=3.1 q=-0.0 size=   13757kB time=00:00:18.87 bitrate=5970.2kbits/s speed=0.13x    frame=  457 fps=3.1 q=-0.0 size=   14102kB time=00:00:19.00 bitrate=6080.1kbits/s speed=0.13x    frame=  459 fps=3.1 q=-0.0 size=   14102kB time=00:00:19.08 bitrate=6053.6kbits/s speed=0.13x    frame=  461 fps=3.1 q=-0.0 size=   14102kB time=00:00:19.16 bitrate=6027.1kbits/s speed=0.13x    frame=  463 fps=3.1 q=-0.0 size=   14102kB time=00:00:19.25 bitrate=6001.1kbits/s speed=0.13x    frame=  465 fps=3.1 q=-0.0 size=   14102kB time=00:00:19.33 bitrate=5975.3kbits/s speed=0.13x    frame=  467 fps=3.1 q=-0.0 size=   14445kB time=00:00:19.41 bitrate=6094.2kbits/s speed=0.131x    frame=  470 fps=3.1 q=-0.0 size=   14445kB time=00:00:19.54 bitrate=6055.2kbits/s speed=0.131x    frame=  472 fps=3.1 q=-0.0 size=   14445kB time=00:00:19.62 bitrate=6029.6kbits/s speed=0.131x    frame=  474 fps=3.1 q=-0.0 size=   14445kB time=00:00:19.70 bitrate=6004.2kbits/s speed=0.131x    frame=  476 fps=3.1 q=-0.0 size=   14445kB time=00:00:19.79 bitrate=5978.7kbits/s speed=0.131x    frame=  478 fps=3.1 q=-0.0 size=   14445kB time=00:00:19.87 bitrate=5953.7kbits/s speed=0.131x    frame=  481 fps=3.2 q=-0.0 size=   14782kB time=00:00:20.00 bitrate=6054.3kbits/s speed=0.131x    frame=  483 fps=3.2 q=-0.0 size=   14782kB time=00:00:20.08 bitrate=6029.2kbits/s speed=0.131x    frame=  485 fps=3.2 q=-0.0 size=   14782kB time=00:00:20.16 bitrate=6004.1kbits/s speed=0.131x    frame=  487 fps=3.2 q=-0.0 size=   14782kB time=00:00:20.25 bitrate=5979.5kbits/s speed=0.131x    frame=  489 fps=3.2 q=-0.0 size=   14782kB time=00:00:20.33 bitrate=5955.1kbits/s speed=0.131x    frame=  491 fps=3.2 q=-0.0 size=   15110kB time=00:00:20.41 bitrate=6062.3kbits/s speed=0.131x    frame=  493 fps=3.2 q=-0.0 size=   15110kB time=00:00:20.50 bitrate=6037.7kbits/s speed=0.131x    frame=  495 fps=3.2 q=-0.0 size=   15110kB time=00:00:20.58 bitrate=6013.4kbits/s speed=0.131x    frame=  497 fps=3.2 q=-0.0 size=   15110kB time=00:00:20.66 bitrate=5988.9kbits/s speed=0.131x    frame=  499 fps=3.2 q=-0.0 size=   15110kB time=00:00:20.75 bitrate=5965.0kbits/s speed=0.131x    frame=  500 fps=3.2 q=-0.0 size=   15110kB time=00:00:20.79 bitrate=5952.9kbits/s speed=0.131x    frame=  500 fps=3.2 q=-0.0 Lsize=   15443kB time=00:00:20.79 bitrate=6084.2kbits/s speed=0.131x    
video:15431kB audio:0kB subtitle:0kB other streams:0kB global headers:3kB muxing overhead: 0.076619%
bench: utime=140.664s
bench: maxrss=238088kB
